<svg height="496pt" viewBox="-32 0 496 496" width="496pt" xmlns="http://www.w3.org/2000/svg"><path d="m372.160156 383.199219c-5.441406 10-16 16.800781-28.160156 16.800781v-160c12.160156 0 22.71875 6.800781 28.160156 16.800781 2.398438 4.480469 3.839844 9.679688 3.839844 15.199219v96c0 5.519531-1.441406 10.71875-3.839844 15.199219zm0 0" fill="#969faa"/><path d="m88 240v160c-11.039062 0-20.800781-5.601562-26.558594-14.160156-3.441406-5.039063-5.441406-11.199219-5.441406-17.839844v-96c0-6.640625 2-12.800781 5.441406-17.839844 5.757813-8.558594 15.519532-14.160156 26.558594-14.160156zm0 0" fill="#969faa"/><path d="m240 440c13.28125 0 24 10.71875 24 24 0 6.640625-2.71875 12.640625-7.039062 16.960938-4.320313 4.320312-10.320313 7.039062-16.960938 7.039062h-48c-13.28125 0-24-10.71875-24-24 0-6.640625 2.71875-12.640625 7.039062-16.960938 4.320313-4.320312 10.320313-7.039062 16.960938-7.039062zm0 0" fill="#434a54"/><path d="m344 240v160h-16c-17.679688 0-32-14.320312-32-32v-96c0-17.679688 14.320312-32 32-32zm0 0" fill="#ffeaa7"/><path d="m136 272v96c0 17.679688-14.320312 32-32 32h-16v-160h16c17.679688 0 32 14.320312 32 32zm0 0" fill="#ffeaa7"/><path d="m392 256c17.679688 0 32 14.320312 32 32v64c0 17.679688-14.320312 32-32 32h-16l-3.839844-.800781c2.398438-4.480469 3.839844-9.679688 3.839844-15.199219v-96c0-5.519531-1.441406-10.71875-3.839844-15.199219l3.839844-.800781zm0 0" fill="#b4dd7f"/><path d="m56 368c0 6.640625 2 12.800781 5.441406 17.839844l-5.441406-1.839844h-16c-17.679688 0-32-14.320312-32-32v-64c0-17.679688 14.320312-32 32-32h10.640625v-.078125l10.800781-1.769531c-3.441406 5.046875-5.441406 11.207031-5.441406 17.847656zm0 0" fill="#b4dd7f"/><path d="m352 72-32 32-.640625.480469c-22.320313-29.441407-57.597656-48.480469-97.28125-48.480469h-12.15625c-39.683594 0-74.960937 19.039062-97.28125 48.480469l-.640625-.480469-32-32-1.761719-1.441406c31.121094-38.160156 78.5625-62.558594 131.683594-62.558594h12.15625c53.121094 0 100.5625 24.398438 131.683594 62.558594zm0 0" fill="#cf9e76"/><path d="m389.679688 205.839844-8.320313 50.160156h-5.359375l-3.839844.800781c-5.441406-10-16-16.800781-28.160156-16.800781h-8.640625l6.960937-42c1.121094-6.640625 1.679688-13.359375 1.679688-20.078125 0-27.523437-9.199219-53.042969-24.640625-73.449219l.640625-.472656 32-32 1.761719-1.441406c23.917969 29.203125 38.238281 66.640625 38.238281 107.363281 0 9.359375-.800781 18.71875-2.320312 27.917969zm0 0" fill="#e6e9ed"/><path d="m88 240c-11.039062 0-20.800781 5.601562-26.558594 14.160156l-10.800781 1.769532-8.320313-50.082032c-1.519531-9.207031-2.320312-18.566406-2.320312-27.925781 0-40.722656 14.320312-78.167969 38.238281-107.363281l1.761719 1.441406 32 32 .640625.480469c-15.441406 20.398437-24.640625 45.917969-24.640625 73.441406 0 6.71875.558594 13.4375 1.679688 20.078125l6.960937 42zm0 0" fill="#e6e9ed"/><path d="m392 248h-1.222656l6.796875-40.816406c1.609375-9.640625 2.425781-19.472656 2.425781-29.246094 0-98.113281-79.824219-177.9375-177.9375-177.9375h-12.132812c-98.105469 0-177.929688 79.824219-177.929688 177.9375 0 9.773438.816406 19.605469 2.425781 29.246094l6.796875 40.816406h-1.222656c-22.054688 0-40 17.945312-40 40v64c0 22.054688 17.945312 40 40 40h16v-.246094c7.296875 9.796875 18.871094 16.246094 32 16.246094h16c22.054688 0 40-17.945312 40-40v-96c0-22.054688-17.945312-40-40-40h-.558594l-5.890625-35.328125c-1.03125-6.167969-1.550781-12.472656-1.550781-18.734375 0-62.824219 51.113281-113.9375 113.9375-113.9375h12.125c62.824219 0 113.9375 51.113281 113.9375 113.9375 0 6.261719-.519531 12.566406-1.542969 18.734375l-5.898437 35.328125h-.558594c-22.054688 0-40 17.945312-40 40v96c0 22.054688 17.945312 40 40 40h16c13.128906 0 24.703125-6.449219 32-16.246094v.246094h16v24c0 22.054688-17.945312 40-40 40h-81.136719c-3.574219-13.769531-16-24-30.863281-24h-48c-17.648438 0-32 14.351562-32 32s14.351562 32 32 32h48c14.863281 0 27.289062-10.230469 30.863281-24h81.136719c30.878906 0 56-25.128906 56-56v-27.390625c14.105469-6.195313 24-20.25 24-36.609375v-64c0-22.054688-17.945312-40-40-40zm-152 232h-48c-8.824219 0-16-7.175781-16-16s7.175781-16 16-16h48c8.824219 0 16 7.175781 16 16s-7.175781 16-16 16zm-200-104c-13.230469 0-24-10.769531-24-24v-64c0-13.230469 10.769531-24 24-24h8.808594c-.527344 2.585938-.808594 5.265625-.808594 8v96c0 2.734375.28125 5.414062.808594 8zm24-8v-96c0-10.414062 6.710938-19.214844 16-22.527344v141.046875c-9.289062-3.304687-16-12.105469-16-22.519531zm62.527344-104h-14.527344v16h16v16h-16v16h16v16h-16v16h16v16h-16v16h14.527344c-3.3125 9.289062-12.113282 16-22.527344 16h-8v-144h8c10.414062 0 19.214844 6.710938 22.527344 16zm-46.527344-86.0625c0 7.152344.59375 14.335938 1.769531 21.359375l5.460938 32.78125c-12.109375.234375-22.804688 5.9375-29.992188 14.675781l-7.03125-42.1875c-1.464843-8.773437-2.207031-17.734375-2.207031-26.628906 0-35.648438 11.71875-68.539062 31.3125-95.3125l22.832031 22.832031c-13.976562 20.71875-22.144531 45.664063-22.144531 72.480469zm142.0625-129.9375h-12.125c-39.050781 0-74.042969 17.390625-97.882812 44.742188l-22.613282-22.613282c29.671875-33.128906 72.621094-54.128906 120.496094-54.128906h12.132812c47.867188 0 90.816407 21 120.488282 54.128906l-22.613282 22.613282c-23.839843-27.351563-58.832031-44.742188-97.882812-44.742188zm83.410156 328h14.527344v-16h-16v-16h16v-16h-16v-16h16v-16h-16v-16h16v-16h-14.527344c3.3125-9.289062 12.113282-16 22.527344-16h8v144h-8c-10.414062 0-19.214844-6.710938-22.527344-16zm62.527344-8c0 10.414062-6.710938 19.214844-16 22.527344v-141.054688c9.289062 3.3125 16 12.113282 16 22.527344zm-23.230469-135.921875 5.460938-32.78125c1.175781-7.023437 1.769531-14.207031 1.769531-21.359375 0-26.816406-8.167969-51.761719-22.144531-72.480469l22.832031-22.832031c19.59375 26.773438 31.3125 59.664062 31.3125 95.3125 0 8.886719-.742188 17.847656-2.199219 26.621094l-7.03125 42.183594c-7.195312-8.734376-17.882812-14.429688-30-14.664063zm71.230469 119.921875c0 13.230469-10.769531 24-24 24h-8.808594c.527344-2.585938.808594-5.265625.808594-8v-96c0-2.734375-.28125-5.414062-.808594-8h8.808594c13.230469 0 24 10.769531 24 24zm0 0"/></svg>